# xmcd
#
# Track frame offsets:
# 150
# 16735
# 29585
# 45335
# 60107
# 82302
# 97572
# 113792
# 124055
# 140595
#
# Disc length: 2127 seconds
#
#
# Revision: 3
# Processed by: cddbd v1.4PL0 Copyright (c) Steve Scherf et al.
# Submitted via: FreeRIP 2.10 
#
DISCID=73084d0a
DTITLE=Ty Herndon - What Mattered Most
DYEAR=1995
DGENRE=Country
TTITLE0=What Mattered Most
TTITLE1=Pretty Good Thing
TTITLE2=Summer Was A Bummer
TTITLE3=You Don't Mess Around With Jim
TTITLE4=Heart Half Empty
TTITLE5=I Want My Goodbye Back
TTITLE6=You Just Get One
TTITLE7=In Your Face
TTITLE8=Love At 90 Miles An Hour
TTITLE9=Hat Full Of Rain
EXTD=
EXTT0=
EXTT1=
EXTT2=
EXTT3=
EXTT4=Duet With Stephanie Bentley
EXTT5=
EXTT6=
EXTT7=
EXTT8=
EXTT9=
PLAYORDER=
